<?xml version="1.0" standalone="no"?>
<!DOCTYPE svg PUBLIC "-//W3C//DTD SVG 20010904//EN"
 "http://www.w3.org/TR/2001/REC-SVG-20010904/DTD/svg10.dtd">
<svg version="1.0" xmlns="http://www.w3.org/2000/svg"
 width="700.000000pt" height="700.000000pt" viewBox="0 0 700.000000 700.000000"
 preserveAspectRatio="xMidYMid meet">
<metadata>
Created by potrace 1.14, written by Peter Selinger 2001-2017
</metadata>
<g transform="translate(0.000000,700.000000) scale(0.100000,-0.100000)"
fill="#000000" stroke="none">
<path d="M545 6985 c-253 -55 -442 -233 -522 -491 -17 -57 -18 -177 -18 -2999
l0 -2940 23 -65 c53 -148 116 -244 219 -330 65 -55 177 -113 263 -137 62 -17
209 -18 2975 -18 1601 0 2928 3 2950 7 252 41 464 233 538 486 l22 77 0 2925
c0 3165 4 2948 -53 3085 -42 102 -109 189 -212 275 -42 36 -122 78 -205 107
l-80 28 -2920 2 c-2380 1 -2931 -1 -2980 -12z m5878 -395 c88 -33 163 -120
183 -213 3 -12 5 -1309 5 -2882 0 -2314 -3 -2868 -13 -2900 -29 -90 -96 -157
-188 -191 -41 -14 -286 -16 -2915 -16 l-2870 0 -56 25 c-88 39 -156 120 -175
210 -3 12 -5 1309 -5 2882 l-1 2860 22 57 c42 112 137 179 270 188 41 3 1337
4 2880 3 l2805 -2 58 -21z"/>
<path d="M1834 4828 c12 -56 41 -214 111 -613 42 -236 78 -437 80 -445 2 -8 7
-35 10 -60 3 -25 8 -52 10 -60 2 -8 6 -31 9 -50 3 -19 8 -46 11 -60 5 -25 8
-40 25 -140 16 -95 20 -114 24 -138 3 -13 14 -76 25 -140 12 -64 23 -128 26
-142 3 -14 12 -65 21 -115 8 -49 17 -101 19 -115 3 -14 12 -63 20 -110 8 -47
17 -94 19 -105 2 -11 7 -40 11 -65 4 -25 9 -54 11 -65 3 -11 11 -58 19 -105 8
-47 17 -94 20 -105 4 -20 11 -21 409 -20 257 0 408 4 414 10 5 6 42 72 81 148
40 76 94 177 120 226 26 49 58 108 70 132 12 24 35 67 50 94 14 28 62 118 105
200 43 83 82 155 86 160 4 6 34 62 67 125 57 109 180 341 263 495 21 39 60
113 88 165 27 52 84 160 127 240 42 80 100 188 128 240 27 52 64 122 82 155
116 219 145 274 145 279 0 3 -155 6 -344 6 l-345 0 -116 -232 c-477 -950 -889
-1764 -895 -1771 -4 -5 -13 31 -20 80 -7 48 -14 96 -16 107 -2 10 -15 94 -29
186 -14 92 -28 178 -30 190 -3 13 -7 46 -10 74 -3 28 -8 58 -10 66 -2 8 -7 35
-10 60 -3 25 -9 59 -12 75 -3 17 -6 41 -8 55 -3 28 -14 99 -21 145 -10 60 -38
246 -59 390 -3 22 -8 52 -11 67 -3 15 -7 39 -9 55 -2 15 -6 42 -9 58 -2 17
-10 66 -16 110 -7 44 -13 87 -15 95 -1 8 -8 54 -15 103 l-13 87 -349 0 -348 0
4 -22z"/>
<path d="M4819 4848 c-3 -9 -8 -41 -17 -93 -6 -33 -36 -202 -66 -375 -59 -335
-66 -374 -71 -405 -9 -50 -26 -142 -30 -165 -3 -14 -10 -54 -16 -89 -5 -36
-11 -67 -13 -70 -2 -3 -7 -28 -11 -56 -3 -27 -17 -108 -30 -180 -13 -71 -29
-159 -34 -195 -6 -36 -13 -76 -16 -90 -3 -14 -8 -41 -11 -60 -3 -19 -9 -57
-14 -85 -6 -27 -19 -102 -30 -165 -11 -63 -25 -137 -30 -165 -5 -27 -12 -68
-15 -90 -4 -22 -8 -47 -10 -55 -2 -8 -7 -35 -10 -60 -4 -24 -8 -47 -10 -50 -2
-3 -6 -30 -10 -60 -4 -30 -9 -58 -11 -61 -2 -4 -6 -28 -10 -55 l-5 -49 325 0
c179 0 326 2 326 5 0 3 6 41 14 85 15 84 20 113 36 207 6 32 13 70 15 85 5 26
20 109 31 178 3 17 7 37 9 45 2 8 7 31 10 50 3 19 7 46 10 60 3 14 7 41 10 60
7 45 17 99 22 125 4 22 51 292 59 340 3 17 7 37 9 45 2 8 7 30 10 48 17 107
16 101 74 427 28 154 53 296 56 315 3 19 14 82 25 140 10 58 21 119 24 135 2
17 12 71 21 120 16 88 35 197 35 203 0 1 -146 2 -325 2 -179 0 -325 -1 -326
-2z"/>
</g>
</svg>
